<?xml version="1.0" encoding="UTF-8" standalone="no"?>
<svg
   xmlns:dc="http://purl.org/dc/elements/1.1/"
   xmlns:cc="http://creativecommons.org/ns#"
   xmlns:rdf="http://www.w3.org/1999/02/22-rdf-syntax-ns#"
   xmlns:svg="http://www.w3.org/2000/svg"
   xmlns="http://www.w3.org/2000/svg"
   xmlns:sodipodi="http://sodipodi.sourceforge.net/DTD/sodipodi-0.dtd"
   xmlns:inkscape="http://www.inkscape.org/namespaces/inkscape"
   version="1.1"
   id="Capa_1"
   x="0px"
   y="0px"
   width="612px"
   height="612px"
   viewBox="0 0 612 612"
   style="enable-background:new 0 0 612 612;"
   xml:space="preserve"
   sodipodi:docname="list-icon.svg"
   inkscape:version="1.0.2 (e86c870879, 2021-01-15)"><metadata
   id="metadata44"><rdf:RDF><cc:Work
       rdf:about=""><dc:format>image/svg+xml</dc:format><dc:type
         rdf:resource="http://purl.org/dc/dcmitype/StillImage" /></cc:Work></rdf:RDF></metadata><defs
   id="defs42" /><sodipodi:namedview
   pagecolor="#ffffff"
   bordercolor="#666666"
   borderopacity="1"
   objecttolerance="10"
   gridtolerance="10"
   guidetolerance="10"
   inkscape:pageopacity="0"
   inkscape:pageshadow="2"
   inkscape:window-width="744"
   inkscape:window-height="480"
   id="namedview40"
   showgrid="false"
   inkscape:zoom="0.89869281"
   inkscape:cx="306"
   inkscape:cy="306"
   inkscape:window-x="0"
   inkscape:window-y="27"
   inkscape:window-maximized="0"
   inkscape:current-layer="Capa_1" />
<g
   id="g7"
   style="fill:#ffffff">
	<g
   id="_x33__32_"
   style="fill:#ffffff">
		<g
   id="g4"
   style="fill:#ffffff">
			<path
   d="M59.226,88.839C26.513,88.839,0,115.352,0,148.064s26.513,59.226,59.226,59.226s59.226-26.514,59.226-59.226     S91.938,88.839,59.226,88.839z M59.226,246.774C26.513,246.774,0,273.288,0,306c0,32.713,26.513,59.226,59.226,59.226     s59.226-26.513,59.226-59.226C118.452,273.288,91.938,246.774,59.226,246.774z M59.226,404.71C26.513,404.71,0,431.223,0,463.936     c0,32.712,26.513,59.226,59.226,59.226s59.226-26.514,59.226-59.226C118.452,431.223,91.938,404.71,59.226,404.71z      M197.419,187.548h375.096c21.815,0,39.484-17.669,39.484-39.484s-17.669-39.484-39.484-39.484H197.419     c-21.815,0-39.484,17.669-39.484,39.484S175.604,187.548,197.419,187.548z M572.516,266.516H197.419     c-21.815,0-39.484,17.669-39.484,39.484c0,21.814,17.669,39.484,39.484,39.484h375.096c21.815,0,39.484-17.67,39.484-39.484     C612,284.185,594.331,266.516,572.516,266.516z M572.516,424.451H197.419c-21.815,0-39.484,17.67-39.484,39.484     s17.669,39.483,39.484,39.483h375.096c21.815,0,39.484-17.669,39.484-39.483S594.331,424.451,572.516,424.451z"
   id="path2"
   style="fill:#ffffff" />
		</g>
	</g>
</g>
<g
   id="g9"
   style="fill:#ffffff">
</g>
<g
   id="g11"
   style="fill:#ffffff">
</g>
<g
   id="g13"
   style="fill:#ffffff">
</g>
<g
   id="g15"
   style="fill:#ffffff">
</g>
<g
   id="g17"
   style="fill:#ffffff">
</g>
<g
   id="g19"
   style="fill:#ffffff">
</g>
<g
   id="g21"
   style="fill:#ffffff">
</g>
<g
   id="g23"
   style="fill:#ffffff">
</g>
<g
   id="g25"
   style="fill:#ffffff">
</g>
<g
   id="g27"
   style="fill:#ffffff">
</g>
<g
   id="g29"
   style="fill:#ffffff">
</g>
<g
   id="g31"
   style="fill:#ffffff">
</g>
<g
   id="g33"
   style="fill:#ffffff">
</g>
<g
   id="g35"
   style="fill:#ffffff">
</g>
<g
   id="g37"
   style="fill:#ffffff">
</g>
</svg>
