<?xml version="1.0" encoding="UTF-8" standalone="no"?>
<svg
   xmlns:dc="http://purl.org/dc/elements/1.1/"
   xmlns:cc="http://creativecommons.org/ns#"
   xmlns:rdf="http://www.w3.org/1999/02/22-rdf-syntax-ns#"
   xmlns:svg="http://www.w3.org/2000/svg"
   xmlns="http://www.w3.org/2000/svg"
   xmlns:sodipodi="http://sodipodi.sourceforge.net/DTD/sodipodi-0.dtd"
   xmlns:inkscape="http://www.inkscape.org/namespaces/inkscape"
   version="1.1"
   id="mdi-barcode-scan"
   width="24"
   height="24"
   viewBox="0 0 24 24"
   sodipodi:docname="scan-icon.svg"
   inkscape:version="1.0.2 (e86c870879, 2021-01-15)">
  <metadata
     id="metadata9">
    <rdf:RDF>
      <cc:Work
         rdf:about="">
        <dc:format>image/svg+xml</dc:format>
        <dc:type
           rdf:resource="http://purl.org/dc/dcmitype/StillImage" />
      </cc:Work>
    </rdf:RDF>
  </metadata>
  <defs
     id="defs7" />
  <sodipodi:namedview
     pagecolor="#ffffff"
     bordercolor="#666666"
     borderopacity="1"
     objecttolerance="10"
     gridtolerance="10"
     guidetolerance="10"
     inkscape:pageopacity="0"
     inkscape:pageshadow="2"
     inkscape:window-width="744"
     inkscape:window-height="480"
     id="namedview5"
     showgrid="false"
     inkscape:zoom="22.916667"
     inkscape:cx="12"
     inkscape:cy="12"
     inkscape:window-x="0"
     inkscape:window-y="27"
     inkscape:window-maximized="0"
     inkscape:current-layer="mdi-barcode-scan" />
  <path
     d="M4,6H6V18H4V6M7,6H8V18H7V6M9,6H12V18H9V6M13,6H14V18H13V6M16,6H18V18H16V6M19,6H20V18H19V6M2,4V8H0V4A2,2 0 0,1 2,2H6V4H2M22,2A2,2 0 0,1 24,4V8H22V4H18V2H22M2,16V20H6V22H2A2,2 0 0,1 0,20V16H2M22,20V16H24V20A2,2 0 0,1 22,22H18V20H22Z"
     id="path2"
     style="fill:#ffffff" />
</svg>
