<?xml version="1.0" encoding="UTF-8" standalone="no"?>
<svg
   xmlns:dc="http://purl.org/dc/elements/1.1/"
   xmlns:cc="http://creativecommons.org/ns#"
   xmlns:rdf="http://www.w3.org/1999/02/22-rdf-syntax-ns#"
   xmlns:svg="http://www.w3.org/2000/svg"
   xmlns="http://www.w3.org/2000/svg"
   xmlns:sodipodi="http://sodipodi.sourceforge.net/DTD/sodipodi-0.dtd"
   xmlns:inkscape="http://www.inkscape.org/namespaces/inkscape"
   width="49px"
   height="56px"
   viewBox="0 0 49 56"
   version="1.1"
   id="svg13"
   sodipodi:docname="basket-icon.svg"
   inkscape:version="1.0.2 (e86c870879, 2021-01-15)">
  <metadata
     id="metadata17">
    <rdf:RDF>
      <cc:Work
         rdf:about="">
        <dc:format>image/svg+xml</dc:format>
        <dc:type
           rdf:resource="http://purl.org/dc/dcmitype/StillImage" />
      </cc:Work>
    </rdf:RDF>
  </metadata>
  <sodipodi:namedview
     pagecolor="#ffffff"
     bordercolor="#666666"
     borderopacity="1"
     objecttolerance="10"
     gridtolerance="10"
     guidetolerance="10"
     inkscape:pageopacity="0"
     inkscape:pageshadow="2"
     inkscape:window-width="744"
     inkscape:window-height="480"
     id="namedview15"
     showgrid="false"
     inkscape:zoom="9.8214286"
     inkscape:cx="24.5"
     inkscape:cy="28"
     inkscape:window-x="0"
     inkscape:window-y="27"
     inkscape:window-maximized="0"
     inkscape:current-layer="svg13" />
  <!-- Generator: Sketch 41.2 (35397) - http://www.bohemiancoding.com/sketch -->
  <title
     id="title2">Basket</title>
  <desc
     id="desc4">Created with Sketch.</desc>
  <defs
     id="defs6" />
  <g
     id="Page-1"
     stroke="none"
     stroke-width="1"
     fill="none"
     fill-rule="evenodd"
     style="fill:#ffffff">
    <g
       id="Basket"
       fill="#000000"
       style="fill:#ffffff">
      <path
         d="M48.2,55.5 L0.5,55.5 L0.5,13.5 L48.2,13.5 L48.2,55.5 Z M3.5,52.5 L45.2,52.5 L45.2,16.5 L3.5,16.5 L3.5,52.5 Z"
         id="Shape"
         style="fill:#ffffff" />
      <path
         d="M38,25.7 L35,25.7 L35,11.3 C35,7 31.5,3.5 27.2,3.5 L21.6,3.5 C17.3,3.5 13.8,7 13.8,11.3 L13.8,25.7 L10.8,25.7 L10.8,11.3 C10.8,5.3 15.6,0.5 21.6,0.5 L27.2,0.5 C33.2,0.5 38,5.3 38,11.3 L38,25.7 Z"
         id="path9"
         style="fill:#ffffff" />
    </g>
  </g>
</svg>
